<?xml version="1.0" encoding="UTF-8" standalone="no"?>
<svg
   width="1024"
   height="1024"
   viewBox="0 0 1024 1024"
   version="1.1"
   id="svg47"
   sodipodi:docname="savhub_origin.svg"
   inkscape:version="1.4.2 (f4327f4, 2025-05-13)"
   inkscape:export-filename="savhub_white.png"
   inkscape:export-xdpi="96.309998"
   inkscape:export-ydpi="96.309998"
   xmlns:inkscape="http://www.inkscape.org/namespaces/inkscape"
   xmlns:sodipodi="http://sodipodi.sourceforge.net/DTD/sodipodi-0.dtd"
   xmlns:xlink="http://www.w3.org/1999/xlink"
   xmlns="http://www.w3.org/2000/svg"
   xmlns:svg="http://www.w3.org/2000/svg">
  <sodipodi:namedview
     id="namedview47"
     pagecolor="#ffffff"
     bordercolor="#000000"
     borderopacity="0.25"
     inkscape:showpageshadow="2"
     inkscape:pageopacity="0.0"
     inkscape:pagecheckerboard="0"
     inkscape:deskcolor="#d1d1d1"
     inkscape:zoom="0.57824145"
     inkscape:cx="-12.10567"
     inkscape:cy="702.12884"
     inkscape:window-width="3440"
     inkscape:window-height="1369"
     inkscape:window-x="2552"
     inkscape:window-y="-8"
     inkscape:window-maximized="1"
     inkscape:current-layer="svg47"
     inkscape:export-bgcolor="#ffffffff" />
  <defs
     id="defs4">
    <clipPath
       clipPathUnits="userSpaceOnUse"
       id="clipPath17">
      <rect
         style="fill:none;stroke:#000000;stroke-width:0.999999;stroke-linecap:butt;stroke-linejoin:bevel;paint-order:stroke markers fill;stop-color:#000000"
         id="rect17"
         width="46.160622"
         height="39.922417"
         x="86.574379"
         y="420.06253" />
    </clipPath>
    <clipPath
       clipPathUnits="userSpaceOnUse"
       id="clipPath24">
      <rect
         style="fill:none;stroke:#000000;stroke-width:0.999999;stroke-linecap:butt;stroke-linejoin:bevel;paint-order:stroke markers fill;stop-color:#000000"
         id="rect24"
         width="44.999748"
         height="77.937294"
         x="251.53429"
         y="222.73541" />
    </clipPath>
    <clipPath
       clipPathUnits="userSpaceOnUse"
       id="clipPath12">
      <rect
         style="fill:none;stroke:#000000;stroke-linecap:butt;stroke-linejoin:bevel;paint-order:stroke markers fill;stop-color:#000000"
         id="rect12"
         width="45.034248"
         height="38.955639"
         x="262.48285"
         y="121.00073" />
    </clipPath>
    <clipPath
       clipPathUnits="userSpaceOnUse"
       id="clipPath15">
      <rect
         style="fill:none;stroke:#000000;stroke-linecap:butt;stroke-linejoin:bevel;paint-order:stroke markers fill;stop-color:#000000"
         id="rect15-7"
         width="45.034248"
         height="38.955639"
         x="262.48285"
         y="121.00073" />
    </clipPath>
    <clipPath
       clipPathUnits="userSpaceOnUse"
       id="clipPath27">
      <rect
         style="fill:none;stroke:#000000;stroke-width:0.999999;stroke-linecap:butt;stroke-linejoin:bevel;paint-order:stroke markers fill;stop-color:#000000"
         id="rect28-6"
         width="46.160622"
         height="39.922417"
         x="86.574379"
         y="420.06253" />
    </clipPath>
    <linearGradient
       id="swatch1"
       inkscape:swatch="solid">
      <stop
         style="stop-color:#262922;stop-opacity:1;"
         offset="0"
         id="stop1" />
    </linearGradient>
    <linearGradient
       id="gradient_0"
       gradientUnits="userSpaceOnUse"
       x1="1495.9822"
       y1="1345.2074"
       x2="1546.9795"
       y2="1022.3662"
       gradientTransform="matrix(0.7508661,0,0,0.78054354,-296.15691,-270.44439)">
      <stop
         offset="0"
         stop-color="#1D1E1F"
         id="stop3" />
      <stop
         offset="1"
         stop-color="#4C5154"
         id="stop4" />
    </linearGradient>
  </defs>
  <path
     d="m 1021.8865,263.94261 c 0.087,153.2793 0.1873,82.6427 0.9247,336.81576 -15.3861,-34.1752 -29.64484,-56.51732 -57.20595,-82.93466 C 914.49237,472.90431 860.84872,453.76178 726.70254,443.68178 626.0808,339.53628 638.26095,343.59233 476.50124,290.64483 c 2.5757,-77.1087 12.14911,-147.30032 68.12501,-204.910523 47.71,-49.68412 114.0733,-78.97902 184.3418,-81.37282 76.0015,-2.7617 149.9869,23.8738 205.43049,73.95652 54.0503,47.951803 85.61156,114.916303 87.48796,185.624603 z"
     id="path6-9-8"
     style="display:inline;fill-opacity:1;stroke-width:0.76556"
     sodipodi:nodetypes="ccccccccc"
     inkscape:label="1-o" />
  <use
     x="0"
     y="0"
     xlink:href="#path6-9-8"
     id="use1"
     inkscape:label="1-c"
     style="fill:#287850;fill-opacity:1" />
  <use
     x="0"
     y="0"
     xlink:href="#path6-9-8"
     id="use11"
     inkscape:label="2-c"
     transform="rotate(90,513.07117,512.56542)"
     style="opacity:1;mix-blend-mode:color;fill-opacity:1;fill-rule:nonzero;fill:#0a0a0a;stroke:#0a0a0a;stroke-opacity:1" />
  <use
     x="0"
     y="0"
     xlink:href="#path6-9-8"
     id="use15"
     inkscape:label="3-c"
     transform="rotate(180,512.92555,512.5229)"
     style="fill:#287850;fill-opacity:1" />
  <use
     x="0"
     y="0"
     xlink:href="#path6-9-8"
     id="use16"
     inkscape:label="4-d"
     transform="rotate(-90,511.62529,513.3051)"
     style="fill:#0a0a0a;fill-opacity:1;stroke:#0a0a0a;stroke-opacity:1" />
  <path
     fill="url(#gradient_0)"
     d="m 774.64571,545.54369 c 17.90816,-18.05399 44.48135,-28.73962 69.40259,-28.12298 30.43259,0.74932 57.83169,17.17975 78.31528,39.78431 18.86928,20.61414 31.52136,46.52038 36.40201,74.51849 3.97211,9.58508 2.50041,35.76452 0.98363,46.2316 -5.01581,32.95455 -22.29322,62.52934 -48.10047,82.36296 -51.06642,38.90232 -118.25393,26.33554 -154.81357,-26.87412 -20.8816,-30.69877 -29.11109,-68.79712 -22.87139,-105.8261 4.55026,-28.01371 17.60782,-64.92563 40.68192,-82.07416 z"
     id="path4"
     style="fill:url(#gradient_0);stroke-width:0.76556" />
  <path
     fill="#757678"
     d="m 774.64571,545.54369 c 17.90816,-18.05399 44.48135,-28.73962 69.40259,-28.12298 30.43259,0.74932 57.83169,17.17975 78.31528,39.78431 18.86928,20.61414 31.52136,46.52038 36.40201,74.51849 l -0.75084,0.28881 c -1.87717,-0.92885 -2.95841,-7.89911 -3.16865,-10.37344 -0.45807,-5.41696 -8.04927,-20.84831 -11.21045,-24.93836 l -1.47924,0.5854 -0.92355,-1.12397 1.24647,-1.56109 c -0.36047,-2.77094 -4.42264,-7.51663 -6.15711,-10.10804 -12.50947,-18.67061 -27.64687,-34.38294 -46.23831,-46.41113 -8.04183,-5.19841 -15.03986,-7.73518 -24.238,-9.95973 -24.34309,-7.69617 -40.1338,-4.7223 -62.98265,4.79253 -2.0874,0.28101 -14.74701,7.51663 -15.85077,7.21224 -6.81036,-1.87333 -5.51887,4.73008 -12.36678,5.41696 z"
     id="path5"
     style="stroke-width:0.76556" />
  <defs
     id="defs7">
    <linearGradient
       id="gradient_1"
       gradientUnits="userSpaceOnUse"
       x1="756.69568"
       y1="719.0166"
       x2="756.34558"
       y2="438.13043"
       gradientTransform="matrix(0.7508661,0,0,0.78054354,-304.15691,-288.44439)">
      <stop
         offset="0"
         stop-color="#202122"
         id="stop6" />
      <stop
         offset="1"
         stop-color="#4B4F53"
         id="stop7" />
    </linearGradient>
  </defs>
  <path
     fill="url(#gradient_1)"
     d="m 118.24806,164.27869 c -0.19298,-4.36947 -0.97237,-8.40021 -0.78241,-12.83995 5.52262,-128.881792 182.46497,-158.9779935 260.37184,-80.165723 16.98685,17.184448 24.1929,32.425333 31.02954,54.746543 5.9386,30.61136 0.89954,57.34654 -15.5955,83.59153 -47.98334,76.34889 -160.01031,82.88907 -228.25653,33.94585 -23.38572,-16.77075 -40.51073,-42.90882 -45.91697,-71.88807 -0.37844,-2.00521 -0.89953,-5.48877 -0.84997,-7.39018 z"
     id="path7"
     style="fill:url(#gradient_1);stroke-width:0.76556" />
  <path
     fill="#53585b"
     d="m 118.24806,164.27869 c -0.19298,-4.36947 -0.97237,-8.40021 -0.78241,-12.83995 5.52262,-128.881792 182.46497,-158.9779935 260.37184,-80.165723 16.98685,17.184448 24.1929,32.425333 31.02954,54.746543 l -1.56556,0.85393 c -1.72473,-1.8905 -1.1751,-4.35857 -1.53777,-6.78059 -0.75462,-5.04232 -5.25607,-10.22748 -7.69562,-14.34406 -10.6135,-17.914246 -22.03118,-30.608229 -38.38278,-43.039947 -5.04056,-2.205035 -10.01506,-7.825731 -14.85364,-7.661036 -6.60536,0.224797 -13.28432,2.39861 -20.00608,2.988701 -1.05796,1.697683 -0.80643,1.059198 -1.19387,2.968407 -7.78949,0.487059 -7.71215,-9.80831 -15.86956,2.934064 -3.03424,-1.857695 -4.84459,-3.286869 -8.31509,-3.93472 l -1.14507,0.729027 0.0233,1.518157 c 0.0187,1.63524 -0.009,2.195671 -0.27407,3.84808 l -1.41613,0.412909 c -5.58645,-3.268917 -5.50686,-6.793073 -11.16539,-2.760003 -2.65806,1.894379 -4.98349,2.156641 -8.10259,1.511133 -2.13472,-1.510353 -2.38851,-2.768589 -3.44798,-5.225742 -3.48476,0.349685 -3.14012,1.691439 -3.83919,5.148469 -6.92298,2.984798 -18.63573,-3.077685 -24.46621,1.518937 -11.35084,-0.108497 -20.3342,-5.319405 -31.73385,-1.749978 l -1.12705,0.348903 c -5.85,-1.602458 -9.77253,-5.48332 -15.09091,-6.59013 -2.30816,1.731245 -2.94264,2.74361 -5.49483,3.076902 -1.96579,-3.939404 2.8578,-2.706924 -1.29976,-4.30704 l -1.27796,0.628338 c -1.32004,0.641606 -1.70147,0.821132 -3.15666,1.17628 l -1.46418,-1.753882 c -1.76604,0.80396 -0.94534,0.324706 -2.27137,2.198011 l -0.68104,-0.58697 -0.11113,-1.456494 c -8.9338,1.840522 -16.19168,10.00579 -22.88864,12.776718 -14.21315,14.21838 -28.17551,31.203796 -34.68477,50.958566 -1.01592,3.08392 -3.14162,6.28103 -3.89623,9.54763 -0.73435,8.15589 -2.21656,23.98297 -2.20305,31.79387 z"
     id="path8"
     style="stroke-width:0.76556" />
  <path
     fill="#757678"
     d="m 118.24806,164.27869 c -0.19298,-4.36947 -0.97237,-8.40021 -0.78241,-12.83995 5.52262,-128.881792 182.46497,-158.9779935 260.37184,-80.165723 16.98685,17.184448 24.1929,32.425333 31.02954,54.746543 l -1.56556,0.85393 c -1.72473,-1.8905 -1.1751,-4.35857 -1.53777,-6.78059 -0.75462,-5.04232 -5.25607,-10.22748 -7.69562,-14.34406 C 387.45458,87.834594 376.0369,75.140611 359.6853,62.708893 353.16402,52.286292 315.75738,40.75298 304.34947,38.06635 c -41.82549,-9.848119 -96.882,-3.340727 -132.69381,21.930152 -3.84294,2.711611 -10.07963,6.6596 -12.63932,10.469432 -14.21315,14.21838 -28.17551,31.203796 -34.68477,50.958566 -1.01592,3.08392 -3.14162,6.28103 -3.89623,9.54763 -0.73435,8.15589 -2.21657,23.98297 -2.20305,31.79387 z"
     id="path9"
     style="stroke-width:0.76556" />
  <circle
     style="display:inline;fill:#ffffff;fill-opacity:1;fill-rule:evenodd;stroke-width:2.82178"
     id="path1"
     cx="512"
     cy="512"
     r="232.3429"
     inkscape:label="c"
     sodipodi:insensitive="true" />
</svg>
